<?xml version="1.0" encoding="UTF-8"?>
<svg
  xmlns="http://www.w3.org/2000/svg"
  width="34px"
  height="35px"
  viewBox="0 0 34 35"
>
  <path
    d="M5.145108,14.3262702 C5.145108,9.14206862 8.18067295,4.11812414 13.3773169,4.11812414 C18.5223346,4.11812414 21.5578996,9.14206862 21.5578996,14.3262702 C21.5578996,19.1898012 19.0369417,24.5344163 13.3773169,24.5344163 C7.66621634,24.5344163 5.145108,19.1898012 5.145108,14.3262702 M-6.02055707e-05,14.3262702 C-6.02055707e-05,22.1294646 5.45381207,28.5963489 13.3773169,28.5963489 C21.249346,28.5963489 26.7030678,22.1294646 26.7030678,14.3262702 C26.7030678,6.04230441 21.352147,0.0563479784 13.3773169,0.0563479784 C5.35086054,0.0563479784 -6.02055707e-05,6.04230441 -6.02055707e-05,14.3262702"
    fill="#FFFFFF"
  />
  <path
    d="M33.9007041,34.809417 L33.9007041,32.9072819 L29.1563545,32.9072819 C31.0540342,30.9705938 33.5343532,28.6188005 33.5343532,26.0596892 C33.5343532,23.6906976 32.1028152,22.5321557 29.8889058,22.5321557 C28.7067694,22.5321557 27.4916705,22.8432891 26.4428894,23.3966062 L26.6260648,25.4025567 C27.3917292,24.8837926 28.3240125,24.4342908 29.3062664,24.4342908 C30.2549557,24.4342908 31.203946,24.9528986 31.203946,26.0596892 C31.203946,28.2729577 27.2585244,31.6968323 26.1766302,32.7862682 L26.1766302,34.809417 L33.9007041,34.809417 Z"
    fill="#FFFFFF"
  />
</svg>
